HIERARCHY
ROOT Hips
{
    OFFSET 0.0 0.0 0.0
    CHANNELS 6 Xposition Yposition Zposition Zrotation Xrotation Yrotation
    JOINT LeftHipJoint
    {
        OFFSET 0.1 0.0 0.0
        CHANNELS 3 Zrotation Xrotation Yrotation
        JOINT LeftUpLeg
        {
            OFFSET 121.91907642478228 0.0 0.0
            CHANNELS 3 Zrotation Xrotation Yrotation
            JOINT LeftLeg
            {
                OFFSET 0.0 0.0 -416.92188843967415
                CHANNELS 3 Zrotation Xrotation Yrotation
                JOINT LeftFoot
                {
                    OFFSET 0.0 0.0 -403.05100867884977
                    CHANNELS 3 Zrotation Xrotation Yrotation
                    End Site
                    {
                        OFFSET 0.0 -0.1 0.0
                    }
                }
            }
        }
    }
    JOINT LowerBack
    {
        OFFSET 0.0 0.0 0.1
        CHANNELS 3 Zrotation Xrotation Yrotation
        JOINT Spine
        {
            OFFSET 0.0 0.0 220.0097854509599
            CHANNELS 3 Zrotation Xrotation Yrotation
            JOINT Spine1
            {
                OFFSET 0.0 0.0 254.84849937380687
                CHANNELS 3 Zrotation Xrotation Yrotation
                JOINT LeftShoulder
                {
                    OFFSET 0.1 0.0 0.0
                    CHANNELS 3 Zrotation Xrotation Yrotation
                    JOINT LeftArm
                    {
                        OFFSET 139.14631088799334 0.0 0.0
                        CHANNELS 3 Zrotation Xrotation Yrotation
                        JOINT LeftForeArm
                        {
                            OFFSET 260.5951009258848 0.0 0.0
                            CHANNELS 3 Zrotation Xrotation Yrotation
                            JOINT LeftHand
                            {
                                OFFSET 237.064888707355 0.0 0.0
                                CHANNELS 3 Zrotation Xrotation Yrotation
                                End Site
                                {
                                    OFFSET 0.1 0.0 0.0
                                }
                            }
                        }
                    }
                }
                JOINT Neck
                {
                    OFFSET 0.0 0.0 0.1
                    CHANNELS 3 Zrotation Xrotation Yrotation
                    JOINT Neck1
                    {
                        OFFSET 0.0 0.0 109.29578895839761
                        CHANNELS 3 Zrotation Xrotation Yrotation
                        End Site
                        {
                            OFFSET 0.0 0.0 113.80092902476486
                        }
                    }
                }
                JOINT RightShoulder
                {
                    OFFSET -0.1 0.0 0.0
                    CHANNELS 3 Zrotation Xrotation Yrotation
                    JOINT RightArm
                    {
                        OFFSET -139.14631088799334 0.0 0.0
                        CHANNELS 3 Zrotation Xrotation Yrotation
                        JOINT RightForeArm
                        {
                            OFFSET -260.5951009258848 0.0 0.0
                            CHANNELS 3 Zrotation Xrotation Yrotation
                            JOINT RightHand
                            {
                                OFFSET -237.064888707355 0.0 0.0
                                CHANNELS 3 Zrotation Xrotation Yrotation
                                End Site
                                {
                                    OFFSET -0.1 0.0 0.0
                                }
                            }
                        }
                    }
                }
            }
        }
    }
    JOINT RightHipJoint
    {
        OFFSET -0.1 0.0 0.0
        CHANNELS 3 Zrotation Xrotation Yrotation
        JOINT RightUpLeg
        {
            OFFSET -121.91907642478228 0.0 0.0
            CHANNELS 3 Zrotation Xrotation Yrotation
            JOINT RightLeg
            {
                OFFSET 0.0 0.0 -416.92188843967415
                CHANNELS 3 Zrotation Xrotation Yrotation
                JOINT RightFoot
                {
                    OFFSET 0.0 0.0 -403.05100867884977
                    CHANNELS 3 Zrotation Xrotation Yrotation
                    End Site
                    {
                        OFFSET 0.0 -0.1 0.0
                    }
                }
            }
        }
    }
}
MOTION
Frames: 6
Frame Time: 0.03333333333333333
0.0 0.0 819.3025018270228 27.071374220124202 8.38372301948457 2.7801761067153503 0.0 0.0 0.0 -0.8178969055064489 -18.401903197321165 0.6632257081459294 1.7690680632295395 28.46957516872229 -0.5682069802524404 0.0 -3.1805546814635168e-15 0.0 0.0 0.0 0.0 0.04089605586075504 0.9500166120241641 -0.015263525791683136 -2.311773165122539 -1.6059937977889122e-15 7.628967472860511e-16 0.0 0.0 0.0 -7.31498378923137 19.93823053160885 75.5625563132723 -46.563159626297605 1.1625265573987047e-15 -6.900120771079525e-16 7.951386703658792e-16 -6.896728590703373e-33 -9.93923337957349e-16 0.0 0.0 0.0 -2.791621475600817 -8.660404168636946 -5.071950900154727 0.0 0.0 0.0 -3.5557663720747814 17.99681319739723 -71.62845281387723 65.67910358063004 1.8950007212364003e-15 -8.794111491262178e-15 0.0 0.0 5.963540027744094e-16 0.0 0.0 0.0 -0.9879489895430017 -21.773814188420225 -3.026155826654397 -0.24672839272268635 33.74049898851915 1.8667729070154087 0.0 0.0 0.0
0.0 0.0 819.3025018270228 26.565627017788447 8.677913128973145 2.8112729838341193 3.1805546814635164e-15 1.1034765745125397e-32 3.9756933518293955e-16 -0.947880604338219 -20.047505298955652 0.3266411849591346 1.630560390759803 27.750207716078208 -1.3115409824722077 0.0 0.0 7.951386703658792e-16 3.1805546814635164e-15 1.1034765745125397e-32 3.9756933518293955e-16 0.055296184125428686 1.2158515117814621 0.515239893679781 -2.0593216026637045 -4.260824282200313e-16 1.5828762305009195e-15 -3.1805546814635164e-15 -4.4139062980501586e-32 1.5902773407317582e-15 -7.512628942332676 20.25716162645522 75.14412144055122 -46.10282395846099 -4.335446208541916e-15 1.4249664087786615e-14 -7.951386703658792e-16 -5.517382872562698e-33 7.951386703658792e-16 -3.1805546814635164e-15 -4.4139062980501586e-32 1.5902773407317582e-15 -1.7604053849449188 -9.385251169066988 -5.934278858221948 -3.1805546814635164e-15 -4.4139062980501586e-32 1.5902773407317582e-15 -2.6752178975578995 19.76950965745461 -72.54999588758061 63.957690246116925 -8.09365637817996e-15 5.053323576416051e-15 0.0 0.0 -2.9817700138720468e-15 3.1805546814635164e-15 1.1034765745125397e-32 3.9756933518293955e-16 -1.016011966103787 -21.246741100671542 -3.6754279574344495 -0.5696479102652796 32.93655625519484 2.8219930822679795 0.0 0.0 0.0
0.0 0.0 819.3025018270228 26.803256235773674 8.396805178310993 2.6549850719031327 3.1805546814635164e-15 -2.2069531490250793e-32 -7.951386703658791e-16 -0.9084728291686246 -19.8104635879175 0.48008888307220826 1.6556668870598716 27.59224930934752 -1.402737980897724 0.0 0.0 7.951386703658792e-16 3.1805546814635164e-15 -2.2069531490250793e-32 -7.951386703658791e-16 0.04240156053864822 0.9604350559097441 0.8735174892235492 -1.6180634546104637 9.769834580925343e-16 1.2066231022361841e-15 0.0 0.0 0.0 -8.015480151336975 20.5709889118142 75.10377132063647 -45.666928428640006 -8.928862826815563e-15 2.0181725007439193e-14 3.975693351829396e-16 -6.207055731633036e-33 -1.7890620083232284e-15 0.0 0.0 0.0 -2.3376486334016433 -9.177346711147008 -6.02417869421018 0.0 0.0 0.0 -2.4004490685166506 19.045117802634216 -72.74619696844812 63.65864668953354 -1.75186680000852e-14 -4.099508521729722e-15 0.0 0.0 1.7890620083232284e-15 3.1805546814635164e-15 -2.2069531490250793e-32 -7.951386703658791e-16 -0.9539601961227904 -20.61005621577588 -3.5929538709568303 -0.568585167767296 32.573359493241355 3.040170368684928 0.0 0.0 7.951386703658791e-16
0.0 0.0 819.3025018270228 27.235656332137992 8.678713278931506 2.5248480302673366 0.0 0.0 -3.975693351829396e-16 -0.9029385860381547 -20.551286279808195 0.6024224977969495 1.6949422669392669 28.04379926945418 -1.5563972668564212 0.0 0.0 -7.951386703658792e-16 0.0 0.0 -3.975693351829396e-16 0.039026527687345124 0.925641702142717 1.1891893376129496 -1.4354998051206826 -2.1764992533514782e-15 -8.224677122387637e-16 0.0 0.0 0.0 -8.987185169881112 21.667861330860436 75.54033142838178 -43.945139276266985 1.9775868869454963e-15 -2.56213249507167e-14 -1.987846675914698e-16 4.0518280470382315e-33 -2.33571984419977e-15 0.0 0.0 0.0 -2.736989523005427 -9.545003653771674 -6.436100954249873 0.0 0.0 0.0 -1.1009311844968748 19.844781151594052 -73.95334837041013 59.94047114135683 8.448510972848554e-16 1.4198760095832537e-14 0.0 0.0 -2.5842006786891076e-15 0.0 0.0 -3.975693351829396e-16 -0.915833665413168 -20.70799577400591 -3.5815831162840848 -0.6363909341200557 32.51653599082089 3.2574737407104664 0.0 3.1805546814635168e-15 0.0
0.0 0.0 819.3025018270228 26.428674550860062 7.591681930153779 2.963914290826223 0.0 0.0 -3.975693351829396e-16 -0.6686303337980246 -17.784172356878756 -0.07332734391443321 1.2297325720352048 30.088423706243162 0.7269116445900765 0.0 0.0 -7.951386703658792e-16 0.0 0.0 -3.975693351829396e-16 0.012773676980278306 0.3496485676920539 0.4641745927480159 -1.4061963613577178 -2.0852690308444454e-16 7.926395018359102e-16 0.0 0.0 0.0 -12.208862267289314 23.8356002779871 77.140079428344 -47.410769839202615 -1.071248889284066e-16 1.2110717627125765e-14 0.0 0.0 2.3854160110976376e-15 0.0 0.0 0.0 -1.132819007530904 -6.098400208031458 -5.371087081891779 0.0 0.0 0.0 0.001529012374479681 22.054886649227033 -75.45753058051521 57.041640698831706 7.107793562642325e-15 -2.4271604759014614e-16 0.0 0.0 2.1866313435061676e-15 0.0 0.0 -3.975693351829396e-16 -0.7315814266934437 -19.194920025397824 -4.327057952676075 -1.1355482370394112 28.288119026348557 3.1354379591322736 -1.3793457181406746e-33 -1.987846675914698e-16 -7.951386703658792e-16
0.0 0.0 819.3025018270228 26.755034560398613 7.301153849722892 2.72102068352665 0.0 0.0 -1.987846675914698e-16 -0.666061499222966 -17.713177516576344 0.09263180547218601 1.3176824594447278 29.929511488986048 0.6821571337294072 0.0 0.0 0.0 0.0 0.0 -1.987846675914698e-16 0.009080875825266146 0.24845404395904294 0.8946651106995566 -1.3760889511947705 -2.148368791795899e-17 1.7889330118198914e-15 0.0 0.0 -1.987846675914698e-16 -10.537175629078718 23.853115883416233 76.14189058057502 -49.34260867852772 3.7545120577200594e-15 3.2558761112551012e-15 0.0 0.0 7.951386703658792e-16 0.0 0.0 -1.987846675914698e-16 -1.103367262182346 -6.1284866817175105 -4.56794706655549 0.0 0.0 -1.987846675914698e-16 -0.837864290929447 21.669696561349998 -75.44395205279636 55.05209471262922 -6.375986584621443e-15 1.529538956774299e-15 0.0 0.0 1.3914926731402886e-15 0.0 0.0 -1.987846675914698e-16 -0.7045384188995057 -18.524472385341287 -3.962222288024637 -0.9493459690659711 28.444222611364577 2.889366167659343 2.2069531490250793e-32 -3.1805546814635164e-15 7.951386703658791e-16
